<svg height="296" viewBox="0 0 265 296" width="265" xmlns="http://www.w3.org/2000/svg" xmlns:xlink="http://www.w3.org/1999/xlink"><linearGradient id="a" x1="18.387987%" x2="81.889889%" y1="7.374231%" y2="94.441421%"><stop offset="0" stop-color="#9c4ed3"/><stop offset="1" stop-color="#6326a8"/></linearGradient><path d="m100.362547 78.8359031c10.375031-7.0605727 23.740824-4.2852423 21.504369-2.157489-4.264482 4.0572687 1.409364 2.8579295 2.021411 10.3447137.449938 5.5143171-1.353121 8.5506607-2.904744 10.2786343-3.238889.4229075-7.175843 1.2125551-11.916729 2.7522029-2.805493.911894-5.243758 1.922907-7.380961 2.940528-.562422-.36674-1.17447-.816079-1.8990016-1.440528-7.3181024-6.3370046-7.0732834-17.5110135.5756556-22.7180619zm61.972284 43.6486779c1.88246-1.457048 10.437891-4.202643 18.358115-5.137665 4.158615-.488986 10.087204-.773127 11.350999-.066079 2.511049 1.384361 2.511049 5.669604.790699 9.627753-2.504432 5.748899-6.044382 12.102423-10.05412 12.62445-6.540636.862334-12.72397-2.672908-19.78402-7.939428-2.520973-1.893171-4.069288-6.479075-.661673-9.109031zm11.933271-55.9856823c9.657116 4.4867841 8.393321 13.0242291 8.661299 18.0396476.072784 1.4405286.049625 2.4118942-.072784 3.0792951-1.33658-.7235683-3.450624-1.2555066-6.801998-1.1068282-.979276.0396476-1.932085.1552864-2.855118.3006608-3.563109-1.9063877-5.693696-5.6365639-7.642322-9.6013216-.178652-.3667401-.317603-.6938326-.449938-1.0110132-.056242-.1453744-.115793-.3006608-.172035-.4328194-.023159-.0726872-.0397-.1288546-.066167-.1949339-1.068602-3.3865639-.350687-4.0638766.099251-5.1079295.466479-1.0671806 2.209987-1.9460353-.367229-2.8348018-.22166-.0825991-.496255-.1288546-.807241-.188326 1.707116-2.1145374 6.81854-2.6266519 10.474282-.9416299zm-52.646005 102.0759913c-10.404806-6.670705-21.170224-16.238987-25.8780271-21.535242-.7906991-.594714-.6616729-3.234582-.6616729-3.234582 4.2479401 3.297357 21.871598 15.872247 40.507615 21.614538 6.573721 2.028634 16.660924 2.795154 25.411549-2.157489 6.686204-3.786344 14.735455-10.384362 19.539201-17.183921l.880025 1.523128c-.033084 1.011013-2.243072 5.937224-3.367916 7.916299 2.031336 1.1663 3.546567 1.48348 5.80618 2.101322l15.430212-2.401983c5.538203-8.93392 9.50824-23.342511 5.276842-37.057268-2.415106-7.86674-15.006742-23.5308374-15.909925-24.3931722-3.162797-3.0363436.529338-14.7654185-5.740013-27.561674-6.626654-13.5363436-23.893008-27.650881-31.393071-33.7929515 2.209988 1.6123348 15.820599 7.0936123 22.166043 14.7422907.595505-.7896476.840324-4.8964757 1.386204-5.9372246-5.448876-7.126652-5.872347-19.8072688-5.872347-23.1971366 0-6.2147577-3.162796-13.25881058-3.162796-13.25881058s5.448876 4.30837004 6.858239 11.72907488c1.664108 8.7885463 5.210675 15.7103524 9.901936 21.5682819 8.87965 11.0451542 16.899126 16.7114538 20.951872 12.6310573 4.850063-4.9030837-4.919538-26.8348017-17.398689-39.0759912-14.566729-14.28634359-18.374657-12.44603522-26.920162-9.39977971-6.81854 2.42841409-10.504058 21.76321581-28.276592 21.37995591-3.010612-.3502202-10.765418-.5385462-14.599813-.5055066 1.998252-2.7852423 3.711985-4.9361233 3.711985-4.9361233s-5.961673 2.3953744-11.043321 5.431718l-.390387-.5848017c1.713733-3.6079295 3.556492-5.8876652 3.556492-5.8876652s-4.764045 2.8579295-9.111236 6.280837c.790699-4.3017621 3.784769-7.0275331 3.784769-7.0275331s-6.017915 1.0837005-13.6833954 9.5055067c-8.7109238 2.3788546-10.8051186 3.9416299-17.7460674 7.0110132-11.2881398-2.4581498-16.6112984-6.4262115-21.6863296-13.7312776-3.8641698-5.5803964-10.7422597-6.4262114-17.7692259-3.5418502-10.246005 4.2290749-23.204869 10.0209251-23.204869 10.0209251s4.2247816-.1718061 8.6282148.0165198c-6.0278402 2.2797357-11.81747818 5.4151983-11.81747818 5.4151983s2.82203498-.099119 6.30574278-.0396476c-2.405181 1.9955947-3.7351435 2.9471366-6.0278402 4.4636564-5.51173529 3.9977974-9.98133579 8.6167401-9.98133579 8.6167401s3.7417603-1.7015419 7.10305868-2.6563877c-2.34893883 5.3755507-7.0071161 9.3337005-6.15024969 15.9151983.82378277 6.0099119 8.2113608 18.3898678 17.7460674 25.9889867.8237828.660793 13.848814 12.6971366 23.6746567 7.7544053 9.819226-4.9361233 13.6933208-9.3337004 15.3078027-16.0770925 1.8990013-7.7444934.8171661-13.6024229-3.2388888-30.4129956-1.3365793-5.5473568-4.8202872-16.9724669-6.5009364-22.4372246l.3738452-.2676212c3.212422 6.7698238 11.4337079 24.6145375 14.7453808 36.6013216 5.1709738 18.6905286 3.5564919 28.1729075 1.1910112 31.6486784-7.1361423 10.4834797-25.4214731 11.8678417-33.7387016 6.0594714-1.2737203 20.1244493 3.2289638 28.9856823 4.7541199 33.4493393-.7576155 5.131057 2.5705992 14.659692 2.5705992 14.659692s.3738452-4.331498 1.8990013-6.614538c.4069288 5.09141 2.977528 11.140969 2.977528 11.140969s-.1554931-3.736784 1.0123596-6.964757c1.6475655 2.785242 2.8551186 3.446035 4.4133583 5.537444 1.5582397 5.44163 4.6813358 9.4163 4.6813358 9.4163s-.5061797-2.917401-.2282771-5.953744c7.6257802 7.314977 8.939201 17.990088 9.6968165 26.193832 2.1372034 22.552864-35.6079276 40.486784-42.9227216 54.594714-5.544819 8.355727-8.866417 21.57489.5227216 29.368943 22.6953807 18.822687 13.9778402 24.003303 25.338764 32.276431 15.5857054 11.345815 35.085206 6.264317 41.7217853-2.963656 9.2402621-12.859031 6.8681648-24.987886 3.4340824-36.333701-2.6830837-8.871145-9.9747191-23.610132-18.9933209-29.312775-9.2171036-5.831498-18.1794632-6.921806-25.7721598-6.14207l.7013733-.806168c10.9209114-2.167401 22.3380774-.977973 30.5990637 4.34141 9.3792135 6.019824 17.9578027 16.344714 22.443945 32.170705 5.0882652-.723569 5.8061802-1.050661 10.4643572-1.711454l-10.4875157-81.528634zm6.060924 102.19163-1.207553-11.306168 23.585331-35.927312 26.774594 7.810572 23.022909-38.401982 27.598377 18.181718 20.968415-43.9163 7.453745 79.979075zm128.473721-119.937225-84.270662 15.254405c-2.087578 2.686124-7.248627 7.404185-9.7299 8.63326-10.643009 5.352423-17.835393 3.802864-24.05181 2.190529-3.996505-1.011013-6.31236-1.579295-9.63065-3.069383l-20.568102 2.818282 12.485768 104.031938 144.360487-25.988987z" fill="url(#a)"/></svg>