<svg width="53" height="59" viewBox="0 0 53 59" fill="none" xmlns="http://www.w3.org/2000/svg">
<path d="M36.8582 34.4337V40.3013C36.8582 43.4137 35.7491 46.3986 33.7749 48.5993C31.8007 50.8001 29.123 52.0365 26.331 52.0365H21.0674V58.5605L0.0129395 50.179V22.6984C0.0129395 20.0855 2.84542 18.7763 4.50511 20.6246L8.99234 25.6323H17.8138C19.6084 25.6323 21.7204 27.0845 22.5215 28.8759L23.6992 31.4999H34.2264C34.9244 31.4999 35.5939 31.809 36.0874 32.3592C36.581 32.9093 36.8582 33.6556 36.8582 34.4337ZM18.4356 34.4337C18.4356 33.8534 18.2812 33.2862 17.9921 32.8037C17.7029 32.3213 17.2918 31.9452 16.8109 31.7232C16.33 31.5011 15.8009 31.443 15.2903 31.5562C14.7798 31.6694 14.3109 31.9489 13.9428 32.3592C13.5748 32.7695 13.3241 33.2922 13.2225 33.8613C13.121 34.4304 13.1731 35.0203 13.3723 35.5564C13.5715 36.0925 13.9088 36.5507 14.3416 36.873C14.7744 37.1954 15.2833 37.3675 15.8038 37.3675C16.5018 37.3675 17.1712 37.0584 17.6648 36.5082C18.1583 35.958 18.4356 35.2118 18.4356 34.4337Z" fill="white"/>
<g clip-path="url(#clip0)">
<path d="M40.0366 26.9447C47.0569 26.9447 52.7487 21.3151 52.7487 14.3706C52.7487 7.426 47.0569 1.79636 40.0366 1.79636C33.0163 1.79636 27.3245 7.426 27.3245 14.3706C27.3245 17.5321 28.5051 20.4241 30.4548 22.6336C30.3007 24.4587 29.7922 26.4597 29.2297 27.9615C29.1042 28.2956 29.3473 28.6692 29.6635 28.6117C33.2483 27.9471 35.3792 26.9268 36.3056 26.3951C37.5226 26.762 38.777 26.9468 40.0366 26.9447V26.9447Z" fill="white"/>
</g>
<defs>
<clipPath id="clip0">
<rect x="27.3245" width="25.4243" height="28.741" fill="white"/>
</clipPath>
</defs>
</svg>
